<?xml version="1.0" encoding="UTF-8"?>
<!DOCTYPE svg PUBLIC "-//W3C//DTD SVG 1.1//EN" "http://www.w3.org/Graphics/SVG/1.1/DTD/svg11.dtd">
<svg xmlns="http://www.w3.org/2000/svg" version="1.1" width="3000px" height="2000px" style="shape-rendering:geometricPrecision; text-rendering:geometricPrecision; image-rendering:optimizeQuality; fill-rule:evenodd; clip-rule:evenodd" xmlns:xlink="http://www.w3.org/1999/xlink">
<g><path style="opacity:0.956" fill="#000000" d="M 2652.5,857.5 C 2543.53,869.488 2436.86,894.654 2332.5,933C 2223.21,973.481 2124.87,1031.48 2037.5,1107C 2025.83,1118 2014.17,1129 2002.5,1140C 1973.5,1140.67 1944.5,1140.67 1915.5,1140C 1972.92,1083.47 2037.25,1036.47 2108.5,999C 2210.66,945.833 2318.33,908.166 2431.5,886C 2504.69,871.644 2578.36,862.144 2652.5,857.5 Z"/></g>
<g><path style="opacity:0.969" fill="#000000" d="M 1090.5,954.5 C 1137.28,1016.01 1183.61,1078.01 1229.5,1140.5C 1207.84,1141.67 1186.17,1141.83 1164.5,1141C 1154.97,1128.31 1145.64,1115.47 1136.5,1102.5C 1080.84,1101.67 1025.17,1101.17 969.5,1101C 978.833,1091 988.167,1081 997.5,1071C 1035.83,1070.67 1074.17,1070.33 1112.5,1070C 1094.1,1045.27 1076.1,1020.27 1058.5,995C 1068.61,981.061 1079.27,967.561 1090.5,954.5 Z"/></g>
<g><path style="opacity:0.966" fill="#000000" d="M 389.5,961.5 C 445.834,961.333 502.168,961.5 558.5,962C 573.748,963.536 585.914,970.369 595,982.5C 597.072,985.971 598.572,989.638 599.5,993.5C 533.167,993.5 466.833,993.5 400.5,993.5C 400.5,1005.83 400.5,1018.17 400.5,1030.5C 452.168,1030.33 503.834,1030.5 555.5,1031C 572.178,1031 586.345,1036.83 598,1048.5C 600.804,1052.44 602.804,1056.78 604,1061.5C 606.23,1079.56 605.897,1097.56 603,1115.5C 599.59,1125.24 593.09,1132.08 583.5,1136C 577.674,1138.1 571.674,1139.43 565.5,1140C 506.167,1140.67 446.833,1140.67 387.5,1140C 371.525,1139.27 359.025,1132.43 350,1119.5C 347.591,1115.11 346.091,1110.44 345.5,1105.5C 415.5,1105.5 485.5,1105.5 555.5,1105.5C 555.5,1092.5 555.5,1079.5 555.5,1066.5C 501.832,1066.67 448.166,1066.5 394.5,1066C 380.454,1065.66 368.287,1060.82 358,1051.5C 354.519,1047.07 352.186,1042.07 351,1036.5C 350.333,1021.83 350.333,1007.17 351,992.5C 353.857,978.641 362.023,969.474 375.5,965C 380.295,963.801 384.962,962.634 389.5,961.5 Z"/></g>
<g><path style="opacity:0.967" fill="#000000" d="M 678.5,961.5 C 747.852,961.037 817.186,961.537 886.5,963C 901.941,964.473 915.108,970.639 926,981.5C 930.207,986.775 932.873,992.775 934,999.5C 934.667,1012.17 934.667,1024.83 934,1037.5C 929.773,1055.39 918.606,1066.23 900.5,1070C 895.857,1070.83 891.19,1071.5 886.5,1072C 835.501,1072.5 784.501,1072.67 733.5,1072.5C 733.5,1095.5 733.5,1118.5 733.5,1141.5C 715.257,1141.83 697.09,1141.49 679,1140.5C 678.5,1080.83 678.333,1021.17 678.5,961.5 Z M 734.5,993.5 C 780.835,993.333 827.168,993.5 873.5,994C 883.791,995.7 888.458,1001.87 887.5,1012.5C 887.385,1019.39 886.219,1026.05 884,1032.5C 880.557,1035.87 876.39,1037.71 871.5,1038C 825.501,1038.5 779.501,1038.67 733.5,1038.5C 734.451,1023.54 734.785,1008.54 734.5,993.5 Z"/></g>
<g><path style="opacity:0.977" fill="#000000" d="M 1316.5,961.5 C 1375.17,961.333 1433.83,961.5 1492.5,962C 1507.79,963.395 1520.29,969.895 1530,981.5C 1532,985.342 1533.5,989.342 1534.5,993.5C 1467.17,993.5 1399.83,993.5 1332.5,993.5C 1332.5,1030.83 1332.5,1068.17 1332.5,1105.5C 1399.83,1105.5 1467.17,1105.5 1534.5,1105.5C 1530.6,1125.9 1518.27,1137.06 1497.5,1139C 1436.83,1139.67 1376.17,1139.67 1315.5,1139C 1301.7,1137.36 1290.54,1131.19 1282,1120.5C 1278.7,1114.6 1277.03,1108.27 1277,1101.5C 1276.06,1064.48 1276.39,1027.48 1278,990.5C 1281.31,978.522 1288.81,970.355 1300.5,966C 1305.87,964.16 1311.21,962.66 1316.5,961.5 Z"/></g>
<g><path style="opacity:0.947" fill="#000000" d="M 1613.5,961.5 C 1694.83,961.5 1776.17,961.5 1857.5,961.5C 1857.5,972.5 1857.5,983.5 1857.5,994.5C 1776.17,994.5 1694.83,994.5 1613.5,994.5C 1613.5,983.5 1613.5,972.5 1613.5,961.5 Z"/></g>
<g><path style="opacity:0.954" fill="#000000" d="M 1921.5,961.5 C 1950.17,961.333 1978.84,961.5 2007.5,962C 2027.87,976.845 2048.2,991.679 2068.5,1006.5C 2053.83,1015.17 2039.49,1024.33 2025.5,1034C 2023.64,1035.3 2021.64,1035.63 2019.5,1035C 1991.11,1013.61 1962.45,992.614 1933.5,972C 1929.17,968.701 1925.17,965.201 1921.5,961.5 Z"/></g>
<g><path style="opacity:0.969" fill="#000000" d="M 1607.5,1021.5 C 1662.17,1021.5 1716.83,1021.5 1771.5,1021.5C 1771.5,1031.83 1771.5,1042.17 1771.5,1052.5C 1735.17,1052.5 1698.83,1052.5 1662.5,1052.5C 1662.5,1070.5 1662.5,1088.5 1662.5,1106.5C 1724.83,1106.5 1787.17,1106.5 1849.5,1106.5C 1849.5,1118.17 1849.5,1129.83 1849.5,1141.5C 1768.83,1141.5 1688.17,1141.5 1607.5,1141.5C 1607.5,1101.5 1607.5,1061.5 1607.5,1021.5 Z"/></g>
<g><path style="opacity:0.962" fill="#000000" d="M 2127.5,1053.5 C 2128.87,1053.34 2130.21,1053.51 2131.5,1054C 2170.34,1082.26 2209.01,1110.76 2247.5,1139.5C 2218.84,1140.67 2190.17,1140.83 2161.5,1140C 2136.11,1121.98 2111.11,1103.48 2086.5,1084.5C 2100.06,1073.9 2113.72,1063.57 2127.5,1053.5 Z"/></g>
</svg>
